<svg fill="none" height="32" viewBox="0 0 32 32" width="32" xmlns="http://www.w3.org/2000/svg"><path d="m27 0h-22c-2.76142 0-5 2.23858-5 5v22c0 2.7614 2.23858 5 5 5h22c2.7614 0 5-2.2386 5-5v-22c0-2.76142-2.2386-5-5-5z" fill="#fc6d26"/><path clip-rule="evenodd" d="m23.9525 16.8631-.8392-2.5786c-.0045-.0237-.0113-.047-.0203-.0694l-1.6837-5.18265c-.0448-.13371-.1308-.24983-.2455-.3318-.1148-.08197-.2525-.12559-.3936-.12463-.1406-.00085-.2778.04338-.3915.1262-.1136.08282-.1978.19988-.24.33401l-1.6048 4.93867h-5.0652l-1.6072-4.93867c-.0421-.13367-.1258-.25039-.2389-.33317s-.2497-.12729-.3898-.12704h-.0038c-.1411.00002-.2787.04456-.3931.12726-.1144.08271-.1998.19938-.2441.33342l-1.68508 5.1888c0 .0028-.00135.0053-.00275.0079l-.00244.0053-.85434 2.6249c-.06278.1925-.06293.3999-.0004.5925.0625.1926.18442.3604.34827.4794l7.38134 5.3635c.0649.047.1432.0721.2234.0717.0802-.0005.1581-.0264.2226-.0741l7.3827-5.3611c.164-.119.2859-.2869.3483-.4796s.0621-.4003-.0009-.5928zm-11.2782-2.8882-1.4486-4.4525-1.4434 4.4525zm9.5483 0-1.4458-4.4525-1.4481 4.4525zm-9.3033.758 2.0575 6.3325-4.9391-6.3325zm4.1065 6.3339 1.973-6.071.0849-.2629h2.884l-4.4685 5.7246zm-3.3112-6.3367h4.5743l-2.2888 7.0386zm-4.87536 2.5946c-.03482-.0253-.0607-.061-.07394-.102-.01325-.0409-.01313-.0851.0003-.126l.63437-1.9494 4.65263 5.9648zm9.10836 3.786 5.2138-3.786c.0349-.0254.0607-.0617.0739-.1027.0131-.0411.0129-.0853-.0007-.1262l-.6344-1.9485-4.6351 5.9408z" fill="#fff" fill-rule="evenodd"/></svg>